<svg width="173" height="16" viewBox="0 0 173 16" fill="none" xmlns="http://www.w3.org/2000/svg">
<path d="M1 8H17" stroke="#3751FF" stroke-width="2" stroke-linecap="round"/>
<path d="M28.036 4.488H25.144V3.456H32.176V4.488H29.284V12H28.036V4.488ZM34.9787 12.084C34.3867 12.084 33.8667 11.956 33.4187 11.7C32.9707 11.444 32.6227 11.08 32.3747 10.608C32.1347 10.136 32.0147 9.584 32.0147 8.952C32.0147 8.32 32.1347 7.768 32.3747 7.296C32.6227 6.816 32.9707 6.448 33.4187 6.192C33.8667 5.936 34.3867 5.808 34.9787 5.808C35.5627 5.808 36.0787 5.936 36.5267 6.192C36.9747 6.448 37.3187 6.816 37.5587 7.296C37.8067 7.768 37.9307 8.32 37.9307 8.952C37.9307 9.584 37.8067 10.136 37.5587 10.608C37.3187 11.08 36.9747 11.444 36.5267 11.7C36.0787 11.956 35.5627 12.084 34.9787 12.084ZM34.9667 11.124C35.5267 11.124 35.9547 10.94 36.2507 10.572C36.5467 10.204 36.6947 9.664 36.6947 8.952C36.6947 8.256 36.5427 7.72 36.2387 7.344C35.9427 6.968 35.5227 6.78 34.9787 6.78C34.4267 6.78 33.9987 6.968 33.6947 7.344C33.3907 7.72 33.2387 8.256 33.2387 8.952C33.2387 9.664 33.3867 10.204 33.6827 10.572C33.9867 10.94 34.4147 11.124 34.9667 11.124ZM44.9794 3.168V12H43.7794V10.968C43.6034 11.328 43.3394 11.604 42.9874 11.796C42.6434 11.988 42.2394 12.084 41.7754 12.084C41.2554 12.084 40.7914 11.952 40.3834 11.688C39.9754 11.424 39.6554 11.056 39.4234 10.584C39.1994 10.104 39.0874 9.552 39.0874 8.928C39.0874 8.304 39.1994 7.756 39.4234 7.284C39.6474 6.812 39.9594 6.448 40.3594 6.192C40.7674 5.936 41.2394 5.808 41.7754 5.808C42.2314 5.808 42.6314 5.904 42.9754 6.096C43.3274 6.288 43.5914 6.56 43.7674 6.912V3.168H44.9794ZM42.0514 11.124C42.6034 11.124 43.0274 10.936 43.3234 10.56C43.6274 10.176 43.7794 9.64 43.7794 8.952C43.7794 8.264 43.6274 7.732 43.3234 7.356C43.0274 6.972 42.6074 6.78 42.0634 6.78C41.5114 6.78 41.0794 6.968 40.7674 7.344C40.4634 7.72 40.3114 8.248 40.3114 8.928C40.3114 9.616 40.4634 10.156 40.7674 10.548C41.0794 10.932 41.5074 11.124 42.0514 11.124ZM52.3919 5.952V12H51.1919V10.968C51.0159 11.328 50.7519 11.604 50.3999 11.796C50.0559 11.988 49.6519 12.084 49.1879 12.084C48.6519 12.084 48.1799 11.956 47.7719 11.7C47.3719 11.444 47.0599 11.084 46.8359 10.62C46.6119 10.148 46.4999 9.6 46.4999 8.976C46.4999 8.352 46.6119 7.8 46.8359 7.32C47.0679 6.84 47.3879 6.468 47.7959 6.204C48.2039 5.94 48.6679 5.808 49.1879 5.808C49.6519 5.808 50.0559 5.908 50.3999 6.108C50.7439 6.3 51.0079 6.576 51.1919 6.936V5.952H52.3919ZM49.4759 11.124C50.0199 11.124 50.4399 10.936 50.7359 10.56C51.0399 10.176 51.1919 9.64 51.1919 8.952C51.1919 8.256 51.0399 7.72 50.7359 7.344C50.4399 6.968 50.0159 6.78 49.4639 6.78C48.9199 6.78 48.4919 6.976 48.1799 7.368C47.8759 7.752 47.7239 8.288 47.7239 8.976C47.7239 9.656 47.8759 10.184 48.1799 10.56C48.4919 10.936 48.9239 11.124 49.4759 11.124ZM59.7684 5.952L56.9484 12.492C56.6364 13.204 56.2444 13.724 55.7724 14.052C55.3084 14.388 54.7324 14.612 54.0444 14.724L53.7804 13.788C54.3484 13.66 54.7764 13.492 55.0644 13.284C55.3604 13.084 55.5964 12.78 55.7724 12.372L55.9884 11.868L53.4444 5.952H54.7284L56.6244 10.632L58.5564 5.952H59.7684Z" fill="#9FA2B4"/>
<path d="M92 8H108" stroke="#DFE0EB" stroke-width="2" stroke-linecap="round"/>
<path d="M120.32 8.568V12H119.072V8.544L115.676 3.456H117.092L119.708 7.488L122.312 3.456H123.728L120.32 8.568ZM128.617 9H124.297C124.337 10.416 124.981 11.124 126.229 11.124C126.925 11.124 127.561 10.896 128.137 10.44L128.509 11.304C128.237 11.544 127.889 11.736 127.465 11.88C127.049 12.016 126.629 12.084 126.205 12.084C125.237 12.084 124.477 11.808 123.925 11.256C123.373 10.696 123.097 9.932 123.097 8.964C123.097 8.348 123.217 7.8 123.457 7.32C123.705 6.84 124.049 6.468 124.489 6.204C124.929 5.94 125.429 5.808 125.989 5.808C126.805 5.808 127.445 6.072 127.909 6.6C128.381 7.128 128.617 7.86 128.617 8.796V9ZM126.013 6.708C125.557 6.708 125.185 6.844 124.897 7.116C124.609 7.388 124.425 7.776 124.345 8.28H127.549C127.501 7.768 127.345 7.38 127.081 7.116C126.817 6.844 126.461 6.708 126.013 6.708ZM132.22 12.084C131.164 12.084 130.332 11.828 129.724 11.316L130.084 10.44C130.716 10.92 131.44 11.16 132.256 11.16C132.672 11.16 132.988 11.092 133.204 10.956C133.42 10.812 133.528 10.612 133.528 10.356C133.528 10.14 133.452 9.972 133.3 9.852C133.156 9.724 132.908 9.616 132.556 9.528L131.548 9.288C131.02 9.176 130.616 8.98 130.336 8.7C130.064 8.412 129.928 8.056 129.928 7.632C129.928 7.088 130.144 6.648 130.576 6.312C131.016 5.976 131.596 5.808 132.316 5.808C132.748 5.808 133.156 5.876 133.54 6.012C133.932 6.148 134.264 6.34 134.536 6.588L134.164 7.44C133.58 6.976 132.964 6.744 132.316 6.744C131.924 6.744 131.62 6.82 131.404 6.972C131.188 7.116 131.08 7.32 131.08 7.584C131.08 7.792 131.148 7.96 131.284 8.088C131.42 8.216 131.636 8.316 131.932 8.388L132.964 8.64C133.54 8.768 133.964 8.972 134.236 9.252C134.516 9.524 134.656 9.88 134.656 10.32C134.656 10.864 134.436 11.296 133.996 11.616C133.564 11.928 132.972 12.084 132.22 12.084ZM137.697 6.888V9.924C137.697 10.34 137.785 10.636 137.961 10.812C138.145 10.98 138.397 11.064 138.717 11.064C138.925 11.064 139.137 11.032 139.353 10.968V11.952C139.089 12.04 138.789 12.084 138.453 12.084C137.829 12.084 137.345 11.908 137.001 11.556C136.657 11.204 136.485 10.692 136.485 10.02V6.888H135.309V5.952H136.485V4.44L137.697 4.02V5.952H139.365V6.888H137.697ZM145.745 9H141.425C141.465 10.416 142.109 11.124 143.357 11.124C144.053 11.124 144.689 10.896 145.265 10.44L145.637 11.304C145.365 11.544 145.017 11.736 144.593 11.88C144.177 12.016 143.757 12.084 143.333 12.084C142.365 12.084 141.605 11.808 141.053 11.256C140.501 10.696 140.225 9.932 140.225 8.964C140.225 8.348 140.345 7.8 140.585 7.32C140.833 6.84 141.177 6.468 141.617 6.204C142.057 5.94 142.557 5.808 143.117 5.808C143.933 5.808 144.573 6.072 145.037 6.6C145.509 7.128 145.745 7.86 145.745 8.796V9ZM143.141 6.708C142.685 6.708 142.313 6.844 142.025 7.116C141.737 7.388 141.553 7.776 141.473 8.28H144.677C144.629 7.768 144.473 7.38 144.209 7.116C143.945 6.844 143.589 6.708 143.141 6.708ZM150.248 5.808C150.432 5.808 150.624 5.836 150.824 5.892L150.8 6.996C150.584 6.916 150.348 6.876 150.092 6.876C149.54 6.876 149.124 7.044 148.844 7.38C148.572 7.708 148.436 8.124 148.436 8.628V12H147.236V7.656C147.236 7.024 147.204 6.456 147.14 5.952H148.268L148.376 7.044C148.536 6.644 148.784 6.34 149.12 6.132C149.456 5.916 149.832 5.808 150.248 5.808ZM157.262 3.168V12H156.062V10.968C155.886 11.328 155.622 11.604 155.27 11.796C154.926 11.988 154.522 12.084 154.058 12.084C153.538 12.084 153.074 11.952 152.666 11.688C152.258 11.424 151.938 11.056 151.706 10.584C151.482 10.104 151.37 9.552 151.37 8.928C151.37 8.304 151.482 7.756 151.706 7.284C151.93 6.812 152.242 6.448 152.642 6.192C153.05 5.936 153.522 5.808 154.058 5.808C154.514 5.808 154.914 5.904 155.258 6.096C155.61 6.288 155.874 6.56 156.05 6.912V3.168H157.262ZM154.334 11.124C154.886 11.124 155.31 10.936 155.606 10.56C155.91 10.176 156.062 9.64 156.062 8.952C156.062 8.264 155.91 7.732 155.606 7.356C155.31 6.972 154.89 6.78 154.346 6.78C153.794 6.78 153.362 6.968 153.05 7.344C152.746 7.72 152.594 8.248 152.594 8.928C152.594 9.616 152.746 10.156 153.05 10.548C153.362 10.932 153.79 11.124 154.334 11.124ZM164.675 5.952V12H163.475V10.968C163.299 11.328 163.035 11.604 162.683 11.796C162.339 11.988 161.935 12.084 161.471 12.084C160.935 12.084 160.463 11.956 160.055 11.7C159.655 11.444 159.343 11.084 159.119 10.62C158.895 10.148 158.783 9.6 158.783 8.976C158.783 8.352 158.895 7.8 159.119 7.32C159.351 6.84 159.671 6.468 160.079 6.204C160.487 5.94 160.951 5.808 161.471 5.808C161.935 5.808 162.339 5.908 162.683 6.108C163.027 6.3 163.291 6.576 163.475 6.936V5.952H164.675ZM161.759 11.124C162.303 11.124 162.723 10.936 163.019 10.56C163.323 10.176 163.475 9.64 163.475 8.952C163.475 8.256 163.323 7.72 163.019 7.344C162.723 6.968 162.299 6.78 161.747 6.78C161.203 6.78 160.775 6.976 160.463 7.368C160.159 7.752 160.007 8.288 160.007 8.976C160.007 9.656 160.159 10.184 160.463 10.56C160.775 10.936 161.207 11.124 161.759 11.124ZM172.051 5.952L169.231 12.492C168.919 13.204 168.527 13.724 168.055 14.052C167.591 14.388 167.015 14.612 166.327 14.724L166.063 13.788C166.631 13.66 167.059 13.492 167.347 13.284C167.643 13.084 167.879 12.78 168.055 12.372L168.271 11.868L165.727 5.952H167.011L168.907 10.632L170.839 5.952H172.051Z" fill="#9FA2B4"/>
</svg>
